M48
; DRILL file {KiCad (5.1.5)-3} date 7/27/2021 8:49:02 PM
; FORMAT={-:-/ absolute / inch / decimal}
; #@! TF.CreationDate,2021-07-27T20:49:02-06:00
; #@! TF.GenerationSoftware,Kicad,Pcbnew,(5.1.5)-3
; #@! TF.FileFunction,Plated,1,2,PTH
FMAT,2
INCH
T1C0.0300
T2C0.0400
T3C0.0709
T4C0.2000
%
G90
G05
T1
X1.95Y-3.4
X1.95Y-3.5
T2
X0.925Y-2.95
X1.025Y-1.325
X1.85Y-5.825
X2.85Y-1.075
X2.975Y-1.35
X2.975Y-1.45
X3.0Y-1.075
X3.15Y-3.725
X3.15Y-3.8
X3.175Y-1.075
X3.325Y-1.075
X4.35Y-8.75
X4.45Y-8.75
X4.55Y-8.75
X4.65Y-8.75
X4.725Y-2.475
X4.75Y-8.75
X4.8Y-1.35
X4.8Y-1.45
X4.875Y-1.075
X4.925Y-1.625
X4.975Y-1.675
X5.025Y-1.075
X5.025Y-1.725
X5.05Y-8.5
X5.075Y-1.775
X5.1Y-3.9
X5.1Y-8.1
X5.15Y-8.45
X5.175Y-3.9
X5.175Y-8.05
X5.25Y-8.4
X5.35Y-8.35
X5.45Y-8.3
X5.55Y-8.25
X5.575Y-1.625
X5.625Y-1.575
X5.65Y-8.2
X5.675Y-1.525
X5.75Y-8.15
X5.775Y-2.0
X6.1Y-2.65
X6.15Y-2.325
X6.2Y-2.75
X6.25Y-2.225
X6.3Y-2.85
X6.325Y-2.125
X6.35Y-2.025
X6.45Y-8.05
X6.6Y-1.95
X6.6Y-4.05
X6.625Y-2.65
X6.625Y-2.75
X6.625Y-2.85
X6.625Y-2.95
X6.625Y-3.05
X6.625Y-3.15
X6.625Y-3.25
X6.625Y-3.35
X6.65Y-4.0
X6.7Y-3.95
X6.75Y-3.9
X6.95Y-3.05
X6.95Y-3.5
X7.0Y-3.4
X7.05Y-3.875
X7.075Y-2.4
X7.075Y-2.55
X7.15Y-1.425
X7.15Y-8.0
X7.225Y-2.6
X7.25Y-2.8
X7.25Y-2.9
X7.325Y-1.6
X7.325Y-3.1
X7.375Y-3.25
X7.65Y-7.95
X7.7Y-2.05
X7.75Y-2.15
X7.925Y-2.85
X7.925Y-3.05
X7.95Y-2.95
X7.975Y-2.65
X7.975Y-3.375
X8.25Y-8.75
X8.35Y-8.75
X8.45Y-8.75
X8.55Y-4.65
X8.55Y-5.15
X8.55Y-8.75
X8.575Y-7.95
X8.6Y-4.75
X8.6Y-5.75
X8.65Y-7.25
X8.7Y-5.75
X8.8Y-5.3
X8.8Y-5.7
X8.95Y-4.55
X9.025Y-6.45
X9.1Y-5.1
X9.225Y-7.05
X9.55Y-5.15
X9.575Y-7.0
X9.675Y-4.75
X9.675Y-6.5
X9.675Y-6.8
X9.95Y-6.975
X9.95Y-7.45
X10.0Y-4.4
X10.15Y-6.35
X10.175Y-3.4
X10.2Y-6.3
X10.225Y-7.25
X10.275Y-7.2
X10.3Y-4.55
X10.3Y-6.35
X10.325Y-7.15
X10.35Y-6.3
X10.375Y-7.1
X10.4Y-5.15
X10.425Y-6.85
X10.475Y-6.8
X10.525Y-6.75
X10.575Y-6.7
X10.625Y-5.1
X10.625Y-7.35
X10.675Y-2.35
X10.675Y-5.0
X10.675Y-7.3
X10.725Y-2.25
X10.725Y-4.9
X10.725Y-7.05
X10.775Y-2.2
X10.775Y-4.8
X10.775Y-7.0
X10.825Y-2.3
X10.825Y-4.7
X10.825Y-6.95
X10.875Y-2.4
X10.875Y-4.6
X10.875Y-6.9
X10.925Y-2.5
X10.925Y-4.5
X10.925Y-6.65
X10.975Y-2.6
X10.975Y-4.4
X10.975Y-6.6
X11.025Y-1.9
X11.15Y-3.35
X11.2Y-3.0
X11.25Y-2.8
X11.3Y-3.1
X11.35Y-3.2
X11.35Y-6.95
X11.35Y-7.3
X11.35Y-8.5
X11.4Y-3.25
X11.45Y-3.15
X11.5Y-3.05
X11.55Y-2.95
X11.6Y-2.85
X11.65Y-2.75
X11.7Y-2.65
X11.75Y-2.55
X11.975Y-3.7
X11.975Y-3.8
X11.975Y-6.075
X11.975Y-6.175
X11.5Y-5.45
X11.7Y-5.45
X1.5Y-4.075
X1.7Y-4.075
X2.475Y-4.15
X2.925Y-4.15
X1.175Y-5.3
X1.625Y-5.3
X2.175Y-4.95
X2.625Y-4.95
X3.35Y-3.45
X3.35Y-3.9
X3.05Y-6.025
X3.5Y-6.025
X5.55Y-4.1
X5.55Y-4.7
X5.65Y-4.1
X5.65Y-4.7
X5.75Y-4.1
X5.75Y-4.7
X5.85Y-4.1
X5.85Y-4.7
X5.95Y-4.1
X5.95Y-4.7
X6.05Y-4.1
X6.05Y-4.7
X6.15Y-4.1
X6.15Y-4.7
X6.25Y-4.1
X6.25Y-4.7
X6.35Y-4.1
X6.35Y-4.7
X6.45Y-4.1
X6.45Y-4.7
X6.55Y-4.1
X6.55Y-4.7
X6.65Y-4.1
X6.65Y-4.7
X6.75Y-4.1
X6.75Y-4.7
X6.85Y-4.1
X6.85Y-4.7
X6.95Y-4.1
X6.95Y-4.7
X7.05Y-4.1
X7.05Y-4.7
X7.15Y-4.1
X7.15Y-4.7
X7.25Y-4.1
X7.25Y-4.7
X7.35Y-4.1
X7.35Y-4.7
X7.45Y-4.1
X7.45Y-4.7
X1.075Y-3.975
X1.075Y-4.425
X4.0Y-5.1
X4.45Y-5.1
X5.55Y-5.05
X5.55Y-5.65
X5.65Y-5.05
X5.65Y-5.65
X5.75Y-5.05
X5.75Y-5.65
X5.85Y-5.05
X5.85Y-5.65
X5.95Y-5.05
X5.95Y-5.65
X6.05Y-5.05
X6.05Y-5.65
X6.15Y-5.05
X6.15Y-5.65
X6.25Y-5.05
X6.25Y-5.65
X6.35Y-5.05
X6.35Y-5.65
X6.45Y-5.05
X6.45Y-5.65
X6.55Y-5.05
X6.55Y-5.65
X6.65Y-5.05
X6.65Y-5.65
X6.75Y-5.05
X6.75Y-5.65
X6.85Y-5.05
X6.85Y-5.65
X6.95Y-5.05
X6.95Y-5.65
X7.05Y-5.05
X7.05Y-5.65
X7.15Y-5.05
X7.15Y-5.65
X7.25Y-5.05
X7.25Y-5.65
X7.35Y-5.05
X7.35Y-5.65
X7.45Y-5.05
X7.45Y-5.65
X1.75Y-5.575
X2.2Y-5.575
X4.45Y-6.9
X4.9Y-6.9
X4.575Y-6.15
X4.575Y-6.25
X4.575Y-6.35
X4.575Y-6.45
X4.575Y-6.55
X4.575Y-6.65
X4.575Y-6.75
X4.875Y-6.15
X4.875Y-6.25
X4.875Y-6.35
X4.875Y-6.45
X4.875Y-6.55
X4.875Y-6.65
X4.875Y-6.75
X11.25Y-5.3
X11.7Y-5.3
X11.2Y-7.575
X11.65Y-7.575
X11.2Y-6.5
X11.2Y-6.6
X11.2Y-6.7
X11.2Y-6.8
X11.2Y-6.9
X11.2Y-7.0
X11.2Y-7.1
X11.2Y-7.2
X11.2Y-7.3
X11.2Y-7.4
X11.5Y-6.5
X11.5Y-6.6
X11.5Y-6.7
X11.5Y-6.8
X11.5Y-6.9
X11.5Y-7.0
X11.5Y-7.1
X11.5Y-7.2
X11.5Y-7.3
X11.5Y-7.4
X7.15Y-4.85
X7.6Y-4.85
X9.08Y-2.15
X9.08Y-2.25
X9.08Y-2.35
X9.08Y-2.45
X9.08Y-2.55
X9.08Y-2.65
X9.08Y-2.75
X9.08Y-2.85
X9.08Y-2.95
X9.08Y-3.05
X9.08Y-3.15
X9.08Y-3.25
X9.08Y-3.35
X9.08Y-3.45
X9.68Y-2.15
X9.68Y-2.25
X9.68Y-2.35
X9.68Y-2.45
X9.68Y-2.55
X9.68Y-2.65
X9.68Y-2.75
X9.68Y-2.85
X9.68Y-2.95
X9.68Y-3.05
X9.68Y-3.15
X9.68Y-3.25
X9.68Y-3.35
X9.68Y-3.45
X3.525Y-3.825
X3.725Y-3.825
X4.975Y-1.35
X5.425Y-1.35
X7.75Y-7.7
X8.2Y-7.7
X7.875Y-4.95
X7.875Y-5.4
X2.475Y-4.025
X2.925Y-4.025
X1.5Y-3.875
X1.7Y-3.875
X5.075Y-5.8
X5.075Y-6.25
X2.475Y-4.35
X2.925Y-4.35
X5.625Y-2.15
X5.625Y-2.6
X4.675Y-2.15
X4.675Y-2.6
X3.475Y-3.95
X3.925Y-3.95
X4.0Y-4.8
X4.45Y-4.8
X3.725Y-2.725
X3.725Y-3.625
X5.55Y-6.0
X5.55Y-6.6
X5.65Y-6.0
X5.65Y-6.6
X5.75Y-6.0
X5.75Y-6.6
X5.85Y-6.0
X5.85Y-6.6
X5.95Y-6.0
X5.95Y-6.6
X6.05Y-6.0
X6.05Y-6.6
X6.15Y-6.0
X6.15Y-6.6
X6.25Y-6.0
X6.25Y-6.6
X6.35Y-6.0
X6.35Y-6.6
X6.45Y-6.0
X6.45Y-6.6
X6.55Y-6.0
X6.55Y-6.6
X6.65Y-6.0
X6.65Y-6.6
X6.75Y-6.0
X6.75Y-6.6
X6.85Y-6.0
X6.85Y-6.6
X6.95Y-6.0
X6.95Y-6.6
X7.05Y-6.0
X7.05Y-6.6
X7.15Y-6.0
X7.15Y-6.6
X7.25Y-6.0
X7.25Y-6.6
X7.35Y-6.0
X7.35Y-6.6
X7.45Y-6.0
X7.45Y-6.6
X2.45Y-5.675
X2.9Y-5.675
X4.0Y-5.3
X4.45Y-5.3
X7.9Y-7.55
X8.35Y-7.55
X4.0Y-5.4
X4.45Y-5.4
X4.45Y-7.0
X4.9Y-7.0
X4.575Y-4.75
X4.575Y-4.85
X4.575Y-4.95
X4.575Y-5.05
X4.575Y-5.15
X4.575Y-5.25
X4.575Y-5.35
X4.875Y-4.75
X4.875Y-4.85
X4.875Y-4.95
X4.875Y-5.05
X4.875Y-5.15
X4.875Y-5.25
X4.875Y-5.35
X9.1Y-4.95
X9.55Y-4.95
X7.15Y-7.7
X7.6Y-7.7
X8.075Y-5.1
X8.075Y-5.2
X8.075Y-5.3
X8.075Y-5.4
X8.075Y-5.5
X8.075Y-5.6
X8.075Y-5.7
X8.075Y-5.8
X8.375Y-5.1
X8.375Y-5.2
X8.375Y-5.3
X8.375Y-5.4
X8.375Y-5.5
X8.375Y-5.6
X8.375Y-5.7
X8.375Y-5.8
X8.5Y-6.7
X8.5Y-6.8
X8.5Y-6.9
X8.5Y-7.0
X8.5Y-7.1
X8.5Y-7.2
X8.5Y-7.3
X8.8Y-6.7
X8.8Y-6.8
X8.8Y-6.9
X8.8Y-7.0
X8.8Y-7.1
X8.8Y-7.2
X8.8Y-7.3
X8.0Y-4.95
X8.45Y-4.95
X9.1Y-5.2
X9.1Y-5.3
X9.1Y-5.4
X9.1Y-5.5
X9.1Y-5.6
X9.1Y-5.7
X9.1Y-5.8
X9.4Y-5.2
X9.4Y-5.3
X9.4Y-5.4
X9.4Y-5.5
X9.4Y-5.6
X9.4Y-5.7
X9.4Y-5.8
X4.875Y-2.0
X4.875Y-2.1
X4.875Y-2.2
X4.875Y-2.3
X4.875Y-2.4
X4.875Y-2.5
X4.875Y-2.6
X4.875Y-2.7
X4.875Y-2.8
X4.875Y-2.9
X4.875Y-3.0
X4.875Y-3.1
X4.875Y-3.2
X4.875Y-3.3
X5.475Y-2.0
X5.475Y-2.1
X5.475Y-2.2
X5.475Y-2.3
X5.475Y-2.4
X5.475Y-2.5
X5.475Y-2.6
X5.475Y-2.7
X5.475Y-2.8
X5.475Y-2.9
X5.475Y-3.0
X5.475Y-3.1
X5.475Y-3.2
X5.475Y-3.3
X7.675Y-4.675
X7.775Y-4.775
X7.875Y-4.675
X4.975Y-1.45
X5.425Y-1.45
X7.7Y-4.85
X7.7Y-5.3
X2.475Y-4.25
X2.925Y-4.25
X2.175Y-5.4
X2.625Y-5.4
X4.45Y-4.4
X4.9Y-4.4
X5.025Y-5.25
X5.025Y-5.7
X2.45Y-5.575
X2.9Y-5.575
X4.05Y-2.725
X4.05Y-3.625
X4.0Y-5.725
X4.45Y-5.725
X4.0Y-6.025
X4.45Y-6.025
X9.7Y-7.575
X10.15Y-7.575
X3.5Y-4.65
X3.95Y-4.65
X5.1Y-6.65
X5.1Y-7.1
X8.075Y-4.175
X8.075Y-4.275
X8.075Y-4.375
X8.075Y-4.475
X8.075Y-4.575
X8.075Y-4.675
X8.075Y-4.775
X8.375Y-4.175
X8.375Y-4.275
X8.375Y-4.375
X8.375Y-4.475
X8.375Y-4.575
X8.375Y-4.675
X8.375Y-4.775
X7.15Y-6.75
X7.6Y-6.75
X3.5Y-4.55
X3.95Y-4.55
X8.0Y-4.0
X8.45Y-4.0
X9.1Y-4.2
X9.1Y-4.3
X9.1Y-4.4
X9.1Y-4.5
X9.1Y-4.6
X9.1Y-4.7
X9.1Y-4.8
X9.4Y-4.2
X9.4Y-4.3
X9.4Y-4.4
X9.4Y-4.5
X9.4Y-4.6
X9.4Y-4.7
X9.4Y-4.8
X4.525Y-2.4
X4.525Y-2.85
X7.6Y-1.55
X7.6Y-2.0
X11.5Y-6.275
X11.7Y-6.275
X11.5Y-5.65
X11.7Y-5.65
X2.9Y-5.15
X3.65Y-5.175
X5.025Y-4.4
X5.025Y-4.85
X4.675Y-3.35
X4.675Y-3.8
X4.55Y-5.875
X5.0Y-5.875
X4.0Y-5.0
X4.45Y-5.0
X1.75Y-4.8
X1.75Y-4.9
X1.75Y-5.0
X1.75Y-5.1
X1.75Y-5.2
X1.75Y-5.3
X1.75Y-5.4
X2.05Y-4.8
X2.05Y-4.9
X2.05Y-5.0
X2.05Y-5.1
X2.05Y-5.2
X2.05Y-5.3
X2.05Y-5.4
X6.85Y-1.55
X6.85Y-1.65
X6.85Y-1.75
X6.85Y-1.85
X6.85Y-1.95
X6.85Y-2.05
X6.85Y-2.15
X6.85Y-2.25
X6.85Y-2.35
X6.85Y-2.45
X6.85Y-2.55
X6.85Y-2.65
X6.85Y-2.75
X6.85Y-2.85
X6.85Y-2.95
X6.85Y-3.05
X6.85Y-3.15
X6.85Y-3.25
X6.85Y-3.35
X6.85Y-3.45
X7.45Y-1.55
X7.45Y-1.65
X7.45Y-1.75
X7.45Y-1.85
X7.45Y-1.95
X7.45Y-2.05
X7.45Y-2.15
X7.45Y-2.25
X7.45Y-2.35
X7.45Y-2.45
X7.45Y-2.55
X7.45Y-2.65
X7.45Y-2.75
X7.45Y-2.85
X7.45Y-2.95
X7.45Y-3.05
X7.45Y-3.15
X7.45Y-3.25
X7.45Y-3.35
X7.45Y-3.45
X4.0Y-6.35
X4.45Y-6.35
X9.95Y-3.64
X10.4Y-3.64
X2.45Y-5.775
X2.9Y-5.775
X4.0Y-5.925
X4.45Y-5.925
X3.05Y-4.05
X3.05Y-4.15
X3.05Y-4.25
X3.05Y-4.35
X3.05Y-4.45
X3.05Y-4.55
X3.05Y-4.65
X3.35Y-4.05
X3.35Y-4.15
X3.35Y-4.25
X3.35Y-4.35
X3.35Y-4.45
X3.35Y-4.55
X3.35Y-4.65
X2.9Y-5.925
X2.9Y-6.375
X8.0Y-5.95
X8.45Y-5.95
X9.95Y-2.15
X9.95Y-2.25
X9.95Y-2.35
X9.95Y-2.45
X9.95Y-2.55
X9.95Y-2.65
X9.95Y-2.75
X9.95Y-2.85
X9.95Y-2.95
X9.95Y-3.05
X9.95Y-3.15
X9.95Y-3.25
X9.95Y-3.35
X9.95Y-3.45
X10.55Y-2.15
X10.55Y-2.25
X10.55Y-2.35
X10.55Y-2.45
X10.55Y-2.55
X10.55Y-2.65
X10.55Y-2.75
X10.55Y-2.85
X10.55Y-2.95
X10.55Y-3.05
X10.55Y-3.15
X10.55Y-3.25
X10.55Y-3.35
X10.55Y-3.45
X5.625Y-3.0
X5.625Y-3.45
X9.15Y-6.7
X9.15Y-6.8
X9.15Y-6.9
X9.15Y-7.0
X9.15Y-7.1
X9.15Y-7.2
X9.15Y-7.3
X9.45Y-6.7
X9.45Y-6.8
X9.45Y-6.9
X9.45Y-7.0
X9.45Y-7.1
X9.45Y-7.2
X9.45Y-7.3
X9.8Y-4.95
X10.25Y-4.95
X5.2Y-6.55
X5.2Y-7.0
X4.525Y-3.175
X4.525Y-3.625
X9.8Y-6.5
X9.8Y-6.6
X9.8Y-6.7
X9.8Y-6.8
X9.8Y-6.9
X9.8Y-7.0
X9.8Y-7.1
X9.8Y-7.2
X9.8Y-7.3
X9.8Y-7.4
X10.1Y-6.5
X10.1Y-6.6
X10.1Y-6.7
X10.1Y-6.8
X10.1Y-6.9
X10.1Y-7.0
X10.1Y-7.1
X10.1Y-7.2
X10.1Y-7.3
X10.1Y-7.4
X4.425Y-2.4
X4.425Y-2.85
X1.5Y-3.675
X1.7Y-3.675
X3.0Y-3.45
X3.0Y-3.9
X8.15Y-1.55
X8.15Y-1.75
X4.45Y-7.1
X4.9Y-7.1
X5.35Y-6.7
X5.35Y-7.15
X5.0Y-6.65
X5.0Y-7.1
X3.5Y-4.45
X3.95Y-4.45
X9.08Y-3.65
X9.53Y-3.65
X1.725Y-6.025
X2.6Y-6.025
X1.175Y-5.1
X1.625Y-5.1
X8.075Y-3.45
X8.525Y-3.45
X4.0Y-5.2
X4.45Y-5.2
X5.125Y-5.25
X5.125Y-5.7
X3.05Y-5.575
X3.05Y-5.675
X3.05Y-5.775
X3.05Y-5.875
X3.35Y-5.575
X3.35Y-5.675
X3.35Y-5.775
X3.35Y-5.875
X4.45Y-5.5
X4.9Y-5.5
X4.4Y-3.175
X4.4Y-3.625
X7.95Y-6.7
X7.95Y-6.8
X7.95Y-6.9
X7.95Y-7.0
X7.95Y-7.1
X7.95Y-7.2
X7.95Y-7.3
X7.95Y-7.4
X8.25Y-6.7
X8.25Y-6.8
X8.25Y-6.9
X8.25Y-7.0
X8.25Y-7.1
X8.25Y-7.2
X8.25Y-7.3
X8.25Y-7.4
X7.15Y-5.8
X7.6Y-5.8
X3.5Y-4.35
X3.95Y-4.35
X2.175Y-4.85
X2.625Y-4.85
X11.25Y-5.9
X11.7Y-5.9
X9.8Y-5.1
X9.8Y-5.2
X9.8Y-5.3
X9.8Y-5.4
X9.8Y-5.5
X9.8Y-5.6
X9.8Y-5.7
X9.8Y-5.8
X10.1Y-5.1
X10.1Y-5.2
X10.1Y-5.3
X10.1Y-5.4
X10.1Y-5.5
X10.1Y-5.6
X10.1Y-5.7
X10.1Y-5.8
X9.025Y-7.1
X9.025Y-7.55
X1.15Y-3.775
X1.35Y-3.775
X7.8Y-1.55
X7.8Y-1.75
X4.55Y-5.975
X5.0Y-5.975
X4.0Y-6.15
X4.45Y-6.15
X3.475Y-4.15
X3.925Y-4.15
X9.15Y-7.45
X9.6Y-7.45
X1.3Y-4.1
X1.3Y-4.975
X1.85Y-4.525
X2.3Y-4.525
X4.0Y-4.9
X4.45Y-4.9
X7.05Y-1.3
X7.5Y-1.3
X1.175Y-5.2
X1.625Y-5.2
X4.0Y-5.825
X4.45Y-5.825
X10.5Y-4.1
X10.5Y-4.2
X10.5Y-4.3
X10.5Y-4.4
X10.5Y-4.5
X10.5Y-4.6
X10.5Y-4.7
X10.5Y-4.8
X10.5Y-4.9
X10.5Y-5.0
X10.5Y-5.1
X10.5Y-5.2
X10.5Y-5.3
X10.5Y-5.4
X10.5Y-5.5
X10.5Y-5.6
X10.5Y-5.7
X10.5Y-5.8
X10.5Y-5.9
X10.5Y-6.0
X11.1Y-4.1
X11.1Y-4.2
X11.1Y-4.3
X11.1Y-4.4
X11.1Y-4.5
X11.1Y-4.6
X11.1Y-4.7
X11.1Y-4.8
X11.1Y-4.9
X11.1Y-5.0
X11.1Y-5.1
X11.1Y-5.2
X11.1Y-5.3
X11.1Y-5.4
X11.1Y-5.5
X11.1Y-5.6
X11.1Y-5.7
X11.1Y-5.8
X11.1Y-5.9
X11.1Y-6.0
X5.125Y-4.4
X5.125Y-4.85
X5.175Y-5.8
X5.175Y-6.25
X8.075Y-2.15
X8.075Y-2.25
X8.075Y-2.35
X8.075Y-2.45
X8.075Y-2.55
X8.075Y-2.65
X8.075Y-2.75
X8.075Y-2.85
X8.075Y-2.95
X8.075Y-3.05
X8.075Y-3.15
X8.075Y-3.25
X8.675Y-2.15
X8.675Y-2.25
X8.675Y-2.35
X8.675Y-2.45
X8.675Y-2.55
X8.675Y-2.65
X8.675Y-2.75
X8.675Y-2.85
X8.675Y-2.95
X8.675Y-3.05
X8.675Y-3.15
X8.675Y-3.25
X4.0Y-6.25
X4.45Y-6.25
X3.025Y-4.825
X3.475Y-4.825
X2.65Y-3.9
X2.85Y-3.9
X7.875Y-4.075
X7.875Y-4.525
X4.425Y-2.95
X4.525Y-3.05
X4.625Y-2.95
X2.9Y-5.35
X3.65Y-5.35
X3.65Y-5.575
X3.65Y-5.775
X4.0Y-6.45
X4.45Y-6.45
X4.0Y-6.65
X4.45Y-6.65
X3.475Y-4.05
X3.925Y-4.05
X1.2Y-2.125
X1.2Y-3.0
X5.55Y-6.95
X5.55Y-7.55
X5.65Y-6.95
X5.65Y-7.55
X5.75Y-6.95
X5.75Y-7.55
X5.85Y-6.95
X5.85Y-7.55
X5.95Y-6.95
X5.95Y-7.55
X6.05Y-6.95
X6.05Y-7.55
X6.15Y-6.95
X6.15Y-7.55
X6.25Y-6.95
X6.25Y-7.55
X6.35Y-6.95
X6.35Y-7.55
X6.45Y-6.95
X6.45Y-7.55
X6.55Y-6.95
X6.55Y-7.55
X6.65Y-6.95
X6.65Y-7.55
X6.75Y-6.95
X6.75Y-7.55
X6.85Y-6.95
X6.85Y-7.55
X6.95Y-6.95
X6.95Y-7.55
X7.05Y-6.95
X7.05Y-7.55
X7.15Y-6.95
X7.15Y-7.55
X7.25Y-6.95
X7.25Y-7.55
X7.35Y-6.95
X7.35Y-7.55
X7.45Y-6.95
X7.45Y-7.55
X1.525Y-4.525
X1.525Y-4.975
X2.175Y-5.2
X2.625Y-5.2
X9.1Y-5.95
X9.55Y-5.95
X2.45Y-4.65
X2.9Y-4.65
X4.0Y-6.55
X4.45Y-6.55
X8.425Y-7.45
X8.875Y-7.45
X4.45Y-5.6
X4.9Y-5.6
X9.8Y-5.95
X10.25Y-5.95
X9.8Y-4.1
X9.8Y-4.2
X9.8Y-4.3
X9.8Y-4.4
X9.8Y-4.5
X9.8Y-4.6
X9.8Y-4.7
X9.8Y-4.8
X10.1Y-4.1
X10.1Y-4.2
X10.1Y-4.3
X10.1Y-4.4
X10.1Y-4.5
X10.1Y-4.6
X10.1Y-4.7
X10.1Y-4.8
X1.65Y-4.425
X1.75Y-4.325
X1.75Y-4.525
X5.775Y-3.0
X5.775Y-3.45
X3.025Y-4.925
X3.475Y-4.925
X4.75Y-3.525
X4.85Y-3.625
X4.95Y-3.525
X7.7Y-1.4
X8.15Y-1.4
X1.7Y-2.95
X1.7Y-3.4
X11.25Y-5.8
X11.7Y-5.8
T3
X1.9644Y-3.1
X2.1204Y-3.1
X2.2764Y-3.1
X2.4323Y-3.1
X2.7441Y-3.1
X2.9Y-3.1
T4
X0.9Y-9.45
X12.0Y-0.95
X12.0Y-9.45
X0.9Y-0.95
T0
M30
