G04 #@! TF.GenerationSoftware,KiCad,Pcbnew,(5.1.5)-3*
G04 #@! TF.CreationDate,2022-02-19T08:40:45-07:00*
G04 #@! TF.ProjectId,SwarsSound,53776172-7353-46f7-956e-642e6b696361,rev?*
G04 #@! TF.SameCoordinates,Original*
G04 #@! TF.FileFunction,Profile,NP*
%FSLAX46Y46*%
G04 Gerber Fmt 4.6, Leading zero omitted, Abs format (unit mm)*
G04 Created by KiCad (PCBNEW (5.1.5)-3) date 2022-02-19 08:40:45*
%MOMM*%
%LPD*%
G04 APERTURE LIST*
%ADD10C,0.025400*%
G04 APERTURE END LIST*
D10*
X90424000Y-17780000D02*
X130810000Y-17780000D01*
X90424000Y-26670000D02*
X90424000Y-17780000D01*
X90170000Y-26670000D02*
X90424000Y-26670000D01*
X89535000Y-26670000D02*
X90170000Y-26670000D01*
X89535000Y-17780000D02*
X89535000Y-26670000D01*
X82550000Y-17780000D02*
X89535000Y-17780000D01*
X82550000Y-17780000D02*
X81280000Y-17780000D01*
X148590000Y-19050000D02*
X148590000Y-25400000D01*
X158750000Y-19050000D02*
X158750000Y-25400000D01*
X148590000Y-19050000D02*
X158750000Y-19050000D01*
X309880000Y-245110000D02*
X309880000Y-19050000D01*
X17780000Y-19050000D02*
X17780000Y-245110000D01*
X68580000Y-17780000D02*
X81280000Y-17780000D01*
X17780000Y-19050000D02*
X55880000Y-19050000D01*
X55880000Y-25400000D02*
X55880000Y-19050000D01*
X130810000Y-17780000D02*
X130810000Y-25400000D01*
X68580000Y-25400000D02*
X68580000Y-17780000D01*
X147320000Y-26670000D02*
X132080000Y-26670000D01*
X158750000Y-25400000D02*
G75*
G03X160020000Y-26670000I1270000J0D01*
G01*
X170180000Y-26670000D02*
G75*
G03X171450000Y-25400000I0J1270000D01*
G01*
X170180000Y-26670000D02*
X160020000Y-26670000D01*
X86995000Y-223520000D02*
G75*
G03X85725000Y-224790000I0J-1270000D01*
G01*
X17780000Y-245110000D02*
X85725000Y-245110000D01*
X85725000Y-245110000D02*
X85725000Y-224790000D01*
X241935000Y-245110000D02*
X241935000Y-224790000D01*
X241935000Y-224790000D02*
G75*
G03X240665000Y-223520000I-1270000J0D01*
G01*
X309880000Y-245110000D02*
X241935000Y-245110000D01*
X240665000Y-223520000D02*
X220980000Y-223520000D01*
X171450000Y-25400000D02*
X171450000Y-19050000D01*
X67310000Y-26670000D02*
X57150000Y-26670000D01*
X147320000Y-26670000D02*
G75*
G03X148590000Y-25400000I0J1270000D01*
G01*
X130810000Y-25400000D02*
G75*
G03X132080000Y-26670000I1270000J0D01*
G01*
X67310000Y-26670000D02*
G75*
G03X68580000Y-25400000I0J1270000D01*
G01*
X171450000Y-19050000D02*
X309880000Y-19050000D01*
X55880000Y-25400000D02*
G75*
G03X57150000Y-26670000I1270000J0D01*
G01*
X219710000Y-231140000D02*
X107950000Y-231140000D01*
X220980000Y-223520000D02*
G75*
G03X219710000Y-224790000I0J-1270000D01*
G01*
X107950000Y-224790000D02*
G75*
G03X106680000Y-223520000I-1270000J0D01*
G01*
X86995000Y-223520000D02*
X106680000Y-223520000D01*
X107950000Y-231140000D02*
X107950000Y-224790000D01*
X219710000Y-224790000D02*
X219710000Y-231140000D01*
M02*
